<?xml version="1.0" encoding="UTF-8"?>
<svg width="789px" height="324px" viewBox="0 0 789 324" version="1.1" xmlns="http://www.w3.org/2000/svg" xmlns:xlink="http://www.w3.org/1999/xlink">
    <!-- Generator: Sketch 48.2 (47327) - http://www.bohemiancoding.com/sketch -->
    <title>Group 22</title>
    <desc>Created with Sketch.</desc>
    <defs></defs>
    <g id="Recognition_Dashboard-Empty-State" stroke="none" stroke-width="1" fill="none" fill-rule="evenodd" transform="translate(-116.000000, -265.000000)" opacity="0.1">
        <g id="Group-22" transform="translate(115.000000, 261.000000)">
            <g id="Group-18" transform="translate(1.000000, 301.000000)">
                <g id="Group-27-Copy-2" transform="translate(661.000000, 9.000000)">
                    <text id="Cheers-Overview" font-family="SourceSansPro-Regular, Source Sans Pro" font-size="14" font-weight="normal" fill="#0F98F5">
                        <tspan x="0" y="16">Cheers Overview</tspan>
                    </text>
                    <g id="ic_keyboard_arrow_right" transform="translate(96.000000, 0.000000)">
                        <g id="Icon-24px">
                            <polygon id="Shape" fill="#0F98F5" points="8.59 16.34 13.17 11.75 8.59 7.16 10 5.75 16 11.75 10 17.75"></polygon>
                            <polygon id="Shape" points="0 0 24 0 24 24 0 24"></polygon>
                        </g>
                    </g>
                </g>
                <path d="M0.5,1.5 L787.607362,1.5" id="Line-3-Copy-2" stroke="#F1F1F1" stroke-linecap="square"></path>
            </g>
            <rect id="line-copy-12" fill="#FFFFFF" transform="translate(322.500000, 269.500000) scale(1, -1) translate(-322.500000, -269.500000) " x="69" y="269" width="507" height="1"></rect>
            <text id="CHEERS" transform="translate(36.000000, 131.000000) rotate(-90.000000) translate(-36.000000, -131.000000) " font-family="SourceSansPro-Regular, Source Sans Pro" font-size="12" font-weight="normal" line-spacing="23.4099998" fill="#4A4A4A">
                <tspan x="15.648" y="120">CHEERS</tspan>
            </text>
            <text id="0" font-family="SourceSansPro-Regular, Source Sans Pro" font-size="12" font-weight="normal" line-spacing="17.4058577" fill="#4A4A4A">
                <tspan x="47.036" y="266">0</tspan>
            </text>
            <polygon id="line-copy-13" fill="#D2D2D2" points="298 7 299 7 299 264 298 264"></polygon>
            <polygon id="line-copy-19" fill="#D2D2D2" points="647 7 648 7 648 264 647 264"></polygon>
            <polygon id="line-copy-15" fill="#D2D2D2" points="181 7 182 7 182 264 181 264"></polygon>
            <polygon id="line-copy-16" fill="#D2D2D2" points="69 7 70 7 70 264 69 264"></polygon>
            <polygon id="line-copy-17" fill="#D2D2D2" points="416 7 417 7 417 264 416 264"></polygon>
            <polygon id="line-copy-18" fill="#D2D2D2" points="535 7 536 7 536 264 535 264"></polygon>
            <rect id="Rectangle-3" fill-opacity="0.5" fill="#D8D8D8" x="648" y="7" width="110" height="257"></rect>
            <path d="M70.1049624,263.5 L758.5,263.5" id="Line" stroke="#D2D2D2" stroke-width="0.5" stroke-linecap="square"></path>
            <g id="Group-7" transform="translate(355.500000, 73.000000) scale(-1, 1) translate(-355.500000, -73.000000) translate(63.000000, 33.000000)">
                <polyline id="Path-1187-Copy-2" stroke="#F37122" stroke-width="2.45000005" stroke-linecap="round" points="0.818335436 79.1425184 111.1318 58.741076 228.527723 4.48215202 346.082753 35.0394935 464.833243 44.4088885 578.241672 62.1098205"></polyline>
                <circle id="Oval-2-Copy-38" stroke="#FFFFFF" stroke-width="1.25" fill="#F37122" cx="231" cy="7" r="7"></circle>
                <circle id="Oval-2-Copy-39" stroke="#FFFFFF" stroke-width="1.25" fill="#F37122" cx="112" cy="58" r="7"></circle>
                <circle id="Oval-2-Copy-41" stroke="#FFFFFF" stroke-width="1.25" fill="#F37122" cx="349" cy="35" r="7"></circle>
                <circle id="Oval-2-Copy-42" stroke="#FFFFFF" stroke-width="1.25" fill="#F37122" cx="466" cy="44" r="7"></circle>
                <circle id="Oval-2-Copy-43" stroke="#FFFFFF" stroke-width="1.25" fill="#F37122" cx="578" cy="62" r="7"></circle>
            </g>
            <path d="M651,114.219575 L718.540003,105.947984" id="Path-3" stroke="#F37122" stroke-width="2.45" stroke-linecap="round" stroke-linejoin="round"></path>
            <circle id="Oval-2-Copy-40" stroke="#FFFFFF" stroke-width="1.25" fill="#F37122" cx="649" cy="114" r="7"></circle>
            <text id="25" font-family="SourceSansPro-Regular, Source Sans Pro" font-size="12" font-weight="normal" line-spacing="17.4058577" fill="#4A4A4A">
                <tspan x="41.072" y="200">25</tspan>
            </text>
            <text id="50" font-family="SourceSansPro-Regular, Source Sans Pro" font-size="12" font-weight="normal" line-spacing="17.4058577" fill="#4A4A4A">
                <tspan x="41.072" y="138">50</tspan>
            </text>
            <text id="75" font-family="SourceSansPro-Regular, Source Sans Pro" font-size="12" font-weight="normal" line-spacing="17.4058577" fill="#4A4A4A">
                <tspan x="41.072" y="74">75 </tspan>
            </text>
            <text id="100" font-family="SourceSansPro-Regular, Source Sans Pro" font-size="12" font-weight="normal" line-spacing="17.4058577" fill="#4A4A4A">
                <tspan x="35.108" y="12">100 </tspan>
            </text>
            <text id="NOV" font-family="SourceSansPro-Regular, Source Sans Pro" font-size="12" font-weight="normal" line-spacing="23.4099998" fill="#4A4A4A">
                <tspan x="521.044" y="272">NOV</tspan>
            </text>
            <text id="SEP" font-family="SourceSansPro-Regular, Source Sans Pro" font-size="12" font-weight="normal" line-spacing="23.4099998" fill="#4A4A4A">
                <tspan x="288.178" y="272">SEP</tspan>
            </text>
            <text id="OCT" font-family="SourceSansPro-Regular, Source Sans Pro" font-size="12" font-weight="normal" line-spacing="23.4099998" fill="#4A4A4A">
                <tspan x="402.374" y="272">OCT</tspan>
            </text>
            <text id="DEC" font-family="SourceSansPro-Regular, Source Sans Pro" font-size="12" font-weight="normal" line-spacing="23.4099998" fill="#4A4A4A">
                <tspan x="627.722" y="272">DEC</tspan>
            </text>
            <text id="AUG" font-family="SourceSansPro-Regular, Source Sans Pro" font-size="12" font-weight="normal" line-spacing="23.4099998" fill="#4A4A4A">
                <tspan x="172.164" y="272">AUG</tspan>
            </text>
            <text id="JUL" font-family="SourceSansPro-Regular, Source Sans Pro" font-size="12" font-weight="normal" line-spacing="23.4099998" fill="#4A4A4A">
                <tspan x="56.334" y="272">JUL</tspan>
            </text>
            <circle id="Oval-2-Copy-41" stroke="#F37122" stroke-width="4.25" fill="#FFFFFF" cx="299" cy="67" r="11"></circle>
        </g>
    </g>
</svg>