<?xml version="1.0" encoding="UTF-8"?>
<svg width="60px" height="45px" viewBox="0 0 60 45" version="1.1" xmlns="http://www.w3.org/2000/svg" xmlns:xlink="http://www.w3.org/1999/xlink">
    <!-- Generator: Sketch 49.3 (51167) - http://www.bohemiancoding.com/sketch -->
    <title>Group 17</title>
    <desc>Created with Sketch.</desc>
    <defs></defs>
    <g id="FINAL-EMAILS" stroke="none" stroke-width="1" fill="none" fill-rule="evenodd">
        <g id="Invitation-Email_Employees" transform="translate(-372.000000, -218.000000)" fill="#F37122">
            <g id="Group-18" transform="translate(340.057555, 194.698242)">
                <g id="Group-17" transform="translate(17.722816, 15.269114)">
                    <polygon id="Shape-Copy-36" points="56.2809678 14.4018797 60.4695235 16.7585177 58.1239323 12.5502356 60.4695235 8.34195354 56.2809678 10.6985915 52.092412 8.34195354 54.4380032 12.5502356 52.092412 16.7585177"></polygon>
                    <polygon id="Shape-Copy-37" points="63.6586874 30.9873206 59.4701317 28.6306826 61.8157229 32.8389647 59.4701317 37.0472468 63.6586874 34.6906088 67.8472432 37.0472468 65.5016519 32.8389647 67.8472432 28.6306826"></polygon>
                    <polygon id="Shape-Copy-38" points="73.7565974 15.3436087 69.5680417 17.7002467 65.3794859 15.3436087 67.7250771 19.5518908 65.3794859 23.7601729 69.5680417 21.4035349 73.7565974 23.7601729 71.4110062 19.5518908"></polygon>
                    <g id="Horn@2x-01-Copy" transform="translate(35.501107, 35.721768) rotate(-26.000000) translate(-35.501107, -35.721768) translate(9.001107, 9.721768)" fill-rule="nonzero">
                        <g id="Group-Copy-8" transform="translate(26.187851, 26.008395) rotate(33.000000) translate(-26.187851, -26.008395) translate(7.187851, 7.508395)">
                            <path d="M33.7505721,19.7421296 C35.4166853,18.1529139 33.6993071,13.4365319 29.8287979,9.07900511 C29.8031654,9.0533726 29.7775329,9.02774009 29.7519004,9.00210758 C29.7262679,8.97647507 29.7006354,8.95084256 29.6750029,8.92521004 C25.7788612,4.61894824 21.2675393,2.44018483 19.4988961,3.90123794 C19.4732636,3.92687045 19.3194685,4.055033 19.293836,4.08066551 C18.1660055,5.18286348 18.3966981,7.54105446 19.7808537,10.2581006 C19.8833838,10.027408 20.0115463,9.82234792 20.1909739,9.66855286 C21.3444369,8.61761992 23.9333205,9.59165532 25.9582888,11.8473163 C27.9832572,14.1029772 28.6753349,16.7687583 27.521872,17.8196913 C27.2655469,18.0503839 26.9579567,18.1785464 26.5991016,18.2298114 C29.4955753,20.3316773 32.2126214,21.0750201 33.545512,19.9215572 L33.7505721,19.7421296 Z M17.2432352,1.05602925 C20.4216665,-1.60975187 27.0861193,1.13292678 32.1613564,7.18219931 C34.7246075,10.2324681 36.6214133,13.8466521 37.108431,17.101981 C37.5698162,20.2035148 36.4932507,22.5360732 35.4423178,22.9461934 C35.2116252,23.023091 28.3164798,25.5094445 21.7289245,28.0726956 L22.2928398,29.2517911 C23.1387126,31.0460668 22.3441048,33.1735652 20.549829,34.0194381 L16.7562175,35.7880813 C14.9619417,36.6339542 12.8344433,35.8393463 11.9885705,34.0450706 L11.1426976,32.2251623 C7.93863376,33.4811553 5.75987034,34.3526607 5.75987034,34.3526607 C5.75987034,34.3526607 4.01685961,35.1985336 1.73556616,32.9172401 C-0.417564745,30.7641092 0.0181879379,28.8929359 0.402675599,28.2008581 C2.35074642,24.9198967 13.6034186,6.6695491 16.4998923,2.05569717 C16.88438,1.36361938 17.1919701,1.10729427 17.2432352,1.05602925 Z M19.6014261,28.8673034 C17.3970302,29.7388088 15.2438993,30.5846816 13.2958285,31.3536569 L14.1929664,33.2760952 C14.423659,33.7887455 15.0388392,34.0194381 15.5514894,33.763113 L19.8321187,31.7637771 C20.344769,31.5330845 20.5754616,30.9179043 20.3191364,30.405254 L19.6014261,28.8673034 Z" id="Combined-Shape"></path>
                        </g>
                    </g>
                </g>
            </g>
        </g>
    </g>
</svg>