<?xml version="1.0" encoding="UTF-8"?>
<svg width="50px" height="32px" viewBox="0 0 50 32" version="1.1" xmlns="http://www.w3.org/2000/svg" xmlns:xlink="http://www.w3.org/1999/xlink">
    <!-- Generator: Sketch 43.2 (39069) - http://www.bohemiancoding.com/sketch -->
    <title>Logo</title>
    <desc>Created with Sketch.</desc>
    <defs>
        <path d="M4.87150547,5.51782373 L5.059909,5.01545354 L5.58963774,5.09569322 C6.39122727,5.2172987 7.19881374,5.44854848 7.99590557,5.7814684 C8.28275869,4.39546493 8.73952479,3.04883372 9.3572085,1.77496644 C7.10536159,0.644633511 4.61513675,0.0430850761 2.09092931,0.0261400498 C0.971002783,2.00222915 0.271361045,4.1896327 0.0319836223,6.44082928 C1.51672334,6.44132767 2.99396689,6.63968415 4.42223553,7.02393754 C4.54167437,6.50312717 4.69109785,5.99926183 4.87150547,5.51782373 L4.87150547,5.51782373 Z" id="path-1"></path>
        <path d="M7.92744063,0.0395963942 C3.94747863,2.38000356 1.03846824,6.354609 0.116440375,11.0443942 C0.948014555,11.4495797 1.76459641,11.9634127 2.54569644,12.580411 C2.83354904,12.8081721 3.11490496,13.0503863 3.39076371,13.3035649 C3.5142005,12.9267873 3.64863166,12.5559903 3.79605617,12.1946625 C4.64662063,10.1094275 5.87099367,8.35511887 7.33674311,7.12162063 L7.76202534,6.76328317 L8.18680782,7.12162063 C9.65205752,8.35511887 10.8769303,10.1094275 11.7274948,12.1946625 C11.8744195,12.5559903 12.0093504,12.9267873 12.1327872,13.3035649 C12.4081462,13.0503863 12.6895021,12.8081721 12.9778545,12.580411 C13.8529064,11.8886552 14.7729353,11.3254823 15.7104552,10.9018567 C14.757943,6.27337255 11.8674231,2.35657955 7.92744063,0.0395963942 L7.92744063,0.0395963942 Z" id="path-3"></path>
        <path d="M3.56384968,5.09569322 L4.09307868,5.01545354 L4.28198195,5.51782373 C4.47238445,6.02717129 4.62780486,6.56093962 4.75024217,7.11314812 C6.17001515,6.70248042 7.63976254,6.4757161 9.1215038,6.44581311 C8.88262612,4.19312138 8.18298438,2.0037243 7.06205837,0.0261400498 C4.63779975,0.042586693 2.24452526,0.59828388 0.0641417577,1.6433933 C0.695818298,2.91875572 1.16507801,4.26837723 1.46342523,5.65836777 C2.16106799,5.39123442 2.86470768,5.20135044 3.56384968,5.09569322 L3.56384968,5.09569322 Z" id="path-5"></path>
        <path d="M9.53261868,0.144531107 C7.41220447,0.465988224 5.24331508,1.60828235 3.35128392,3.41890825 C3.81504645,5.06755964 4.05742233,6.83781651 4.05742233,8.63000223 C4.05742233,10.8522926 3.58816263,13.268454 2.73509945,15.4339287 C2.02546283,17.2355837 1.10343497,18.7626296 0.0369810633,19.9168849 C3.15538424,18.9071607 6.37423597,16.0050758 8.15932189,12.6753781 C10.4546465,8.39576216 10.8484449,3.65464347 9.53261868,0.144531107 L9.53261868,0.144531107 Z" id="path-7"></path>
        <path d="M12.3913294,17.8117146 C10.3948518,16.5707406 8.66273871,14.9225876 7.38239433,13.0451784 C6.13153486,11.2106301 5.33244404,9.19716223 5.07407634,7.22157152 L5.00761038,6.7256803 L5.57232121,6.52682544 C6.88364972,5.95717352 8.19897619,5.66661616 10.017545,5.66611778 L10.017545,5.69751591 L9.80365449,5.69751591 L10.017545,5.69751591 L10.017545,5.66611778 C10.9270792,5.66661616 11.6771951,5.75632512 12.5547458,5.93225437 C12.4817831,5.51859637 12.382334,5.10543676 12.3403555,4.69377229 C12.1934308,3.26440948 12.212421,1.87043188 12.4403044,0.570648681 C8.21696698,-0.576629278 3.73726088,0.0423625658 0.0216635093,2.15999247 C0.0601438049,7.80816846 2.99114294,13.2888877 8.22196442,16.3170636 C11.4523103,18.1874955 13.8200978,19.0920608 15.7506093,19.3596926 C14.5652163,18.9749408 13.4223015,18.4531337 12.3913294,17.8117146 L12.3913294,17.8117146 Z" id="path-9"></path>
        <path d="M3.75457741,0.658862494 C3.96946737,1.93322815 4.01044639,3.29680439 3.86701983,4.69377229 C3.82504133,5.10543676 3.77206845,5.51859637 3.69860607,5.93225437 C4.58065441,5.75632512 5.42672116,5.66611778 6.35224723,5.66611778 C7.87296853,5.66611778 9.37719826,5.95517999 10.692025,6.52632705 L11.1442934,6.7256803 L11.0738295,7.22157152 C10.8154618,9.19716223 10.0173705,11.2106301 8.76651097,13.0451784 C7.48616659,14.9225876 5.75405355,16.5707406 3.75757588,17.8117146 C2.67263144,18.4865253 1.46474995,19.0287662 0.207893545,19.4180034 C2.23235689,19.2520418 4.73607482,18.3604344 8.26576739,16.3170636 C13.4960891,13.2888877 16.4340847,7.80866684 16.4720652,2.15999247 C12.6650147,-0.00996766255 8.06936796,-0.606532266 3.75457741,0.658862494 L3.75457741,0.658862494 Z" id="path-11"></path>
        <path d="M8.78050381,5.51361254 C7.95442681,3.97360867 7.3457385,2.32545567 6.97992582,0.661852793 C4.50169484,0.11313297 2.09292828,0.292052513 0.107444981,1.15475371 C0.598193686,4.90309321 3.14089166,8.79596382 7.11635596,11.2674457 C10.2492517,13.2146286 14.3841344,13.9801451 17.5540112,13.1558194 C14.2397083,12.1914481 10.7554925,9.19716223 8.78050381,5.51361254 L8.78050381,5.51361254 Z" id="path-13"></path>
        <path d="M6.46818786,8.63000223 C6.46818786,6.83781651 6.71056375,5.06755964 7.17432628,3.41890825 C5.28279486,1.60828235 3.11290599,0.465988224 0.992491779,0.144531107 C-0.322834688,3.65464347 0.0714634061,8.39526378 2.36628831,12.6753781 C4.16786578,16.0354771 7.37572315,18.9156332 10.4911279,19.9188785 C8.08486002,17.3103412 6.46818786,12.8642653 6.46818786,8.63000223 L6.46818786,8.63000223 Z" id="path-15"></path>
        <path d="M0.13293193,11.620301 C0.13293193,6.67833391 1.99347921,2.35984411 4.763061,0.0289062214 C7.53314254,2.35984411 9.39319007,6.67833391 9.39319007,11.620301 C9.39319007,15.991121 7.53314254,20.8807579 4.763061,23.2116958 C1.99347921,20.8807579 0.13293193,16.0294965 0.13293193,11.620301 L0.13293193,11.620301 Z" id="path-17"></path>
        <path d="M10.6687115,0.662351176 C10.3033986,2.32495729 9.69471028,3.97410706 8.86863328,5.51411092 C7.83366325,7.44335201 6.29994862,9.28886473 4.54984478,10.709755 C3.08909278,11.8959069 1.57087021,12.7282067 0.100623077,13.1548226 C3.27449785,13.9746629 7.42787105,13.1971852 10.5322814,11.2674457 C14.5082454,8.79596382 17.0504437,4.90309321 17.5411924,1.15475371 C15.5562088,0.292052513 13.1464428,0.11313297 10.6687115,0.662351176 L10.6687115,0.662351176 Z" id="path-19"></path>
    </defs>
    <g id="Page-1" stroke="none" stroke-width="1" fill="none" fill-rule="evenodd">
        <g id="Global-notification" transform="translate(-25.000000, -19.000000)">
            <g id="Logo" transform="translate(25.000000, 19.000000)">
                <g id="Group-33" transform="translate(8.373680, 5.010755)">
                    <mask id="mask-2" fill="white">
                        <use xlink:href="#path-1"></use>
                    </mask>
                    <g id="Clip-32"></g>
                    <polygon id="Fill-31" fill="#F37122" mask="url(#mask-2)" points="0.0319836223 0.0261400498 9.35670875 0.0261400498 9.35670875 7.02393754 0.0319836223 7.02393754"></polygon>
                </g>
                <g id="Group-36" transform="translate(16.869330, 0.026923)">
                    <mask id="mask-4" fill="white">
                        <use xlink:href="#path-3"></use>
                    </mask>
                    <g id="Clip-35"></g>
                    <polygon id="Fill-34" fill="#F37122" mask="url(#mask-4)" points="0.116440375 0.0395963942 15.7104552 0.0395963942 15.7104552 13.3030666 0.116440375 13.3030666"></polygon>
                </g>
                <g id="Group-39" transform="translate(31.735043, 5.010755)">
                    <mask id="mask-6" fill="white">
                        <use xlink:href="#path-5"></use>
                    </mask>
                    <g id="Clip-38"></g>
                    <polygon id="Fill-37" fill="#F37122" mask="url(#mask-6)" points="0.0641417577 0.0261400498 9.1215038 0.0261400498 9.1215038 7.11314812 0.0641417577 7.11314812"></polygon>
                </g>
                <g id="Group" transform="translate(0.000000, 7.498188)">
                    <g id="Group-10" transform="translate(25.864724, 3.119601)">
                        <mask id="mask-8" fill="white">
                            <use xlink:href="#path-7"></use>
                        </mask>
                        <g id="Clip-9"></g>
                        <polygon id="Fill-8" fill="#939597" mask="url(#mask-8)" points="0.0369810633 0.144531107 10.8484449 0.144531107 10.8484449 19.9173833 0.0369810633 19.9173833"></polygon>
                    </g>
                    <g id="Group-30" transform="translate(0.251165, 4.614751)">
                        <mask id="mask-10" fill="white">
                            <use xlink:href="#path-9"></use>
                        </mask>
                        <g id="Clip-29"></g>
                        <polygon id="Fill-28" fill="#F37122" mask="url(#mask-10)" points="0.0216635093 -0.576629278 15.7506093 -0.576629278 15.7506093 19.3596926 0.0216635093 19.3596926"></polygon>
                    </g>
                    <g id="Group-42" transform="translate(32.861141, 4.614751)">
                        <mask id="mask-12" fill="white">
                            <use xlink:href="#path-11"></use>
                        </mask>
                        <g id="Clip-41"></g>
                        <polygon id="Fill-40" fill="#F37122" mask="url(#mask-12)" points="0.207893545 -0.606532266 16.4720652 -0.606532266 16.4720652 19.4180034 0.207893545 19.4180034"></polygon>
                    </g>
                    <g id="Group-45" transform="translate(5.874960, 10.595348)">
                        <mask id="mask-14" fill="white">
                            <use xlink:href="#path-13"></use>
                        </mask>
                        <g id="Clip-44"></g>
                        <polygon id="Fill-43" fill="#939597" mask="url(#mask-14)" points="0.107444981 0.11313297 17.5535115 0.11313297 17.5535115 13.9801451 0.107444981 13.9801451"></polygon>
                    </g>
                    <g id="Group-48" transform="translate(12.871377, 3.119601)">
                        <mask id="mask-16" fill="white">
                            <use xlink:href="#path-15"></use>
                        </mask>
                        <g id="Clip-47"></g>
                        <polygon id="Fill-46" fill="#939597" mask="url(#mask-16)" points="-0.322834688 0.144531107 10.4911279 0.144531107 10.4911279 19.9188785 -0.322834688 19.9188785"></polygon>
                    </g>
                    <g id="Group-51" transform="translate(19.867795, 0.129302)">
                        <mask id="mask-18" fill="white">
                            <use xlink:href="#path-17"></use>
                        </mask>
                        <g id="Clip-50"></g>
                        <polygon id="Fill-49" fill="#939597" mask="url(#mask-18)" points="0.13293193 0.0289062214 9.39269033 0.0289062214 9.39269033 23.2116958 0.13293193 23.2116958"></polygon>
                    </g>
                    <g id="Group-54" transform="translate(25.738114, 10.595348)">
                        <mask id="mask-20" fill="white">
                            <use xlink:href="#path-19"></use>
                        </mask>
                        <g id="Clip-53"></g>
                        <polygon id="Fill-52" fill="#939597" mask="url(#mask-20)" points="0.100623077 0.11313297 17.5411924 0.11313297 17.5411924 13.9746629 0.100623077 13.9746629"></polygon>
                    </g>
                </g>
            </g>
        </g>
    </g>
</svg>